<mxfile host="app.diagrams.net" agent="Mozilla/5.0 (Windows NT 10.0; Win64; x64) AppleWebKit/537.36 (KHTML, like Gecko) Chrome/137.0.0.0 Safari/537.36 Edg/137.0.0.0" version="27.1.6">
  <diagram name="Página-1" id="qUwZIx5kGMzyCPHO5OWf">
    <mxGraphModel grid="1" page="1" gridSize="10" guides="1" tooltips="1" connect="1" arrows="1" fold="1" pageScale="1" pageWidth="827" pageHeight="1169" math="0" shadow="0">
      <root>
        <mxCell id="0" />
        <mxCell id="1" parent="0" />
        <mxCell id="LYJN2EBSwVhYtJWLNP7u-30" value="CU002 iniciar sesión" style="swimlane;childLayout=stackLayout;resizeParent=1;resizeParentMax=0;startSize=20;horizontal=0;horizontalStack=1;" vertex="1" parent="1">
          <mxGeometry x="24" y="10" width="780" height="720" as="geometry">
            <mxRectangle x="200" y="80" width="40" height="50" as="alternateBounds" />
          </mxGeometry>
        </mxCell>
        <mxCell id="LYJN2EBSwVhYtJWLNP7u-20" value="" style="edgeStyle=orthogonalEdgeStyle;html=1;verticalAlign=bottom;endArrow=open;endSize=8;strokeColor=#ff0000;rounded=0;entryX=0.5;entryY=0;entryDx=0;entryDy=0;" edge="1" parent="LYJN2EBSwVhYtJWLNP7u-30" source="DY15bEepxD2QxG58CWDD-1" target="LYJN2EBSwVhYtJWLNP7u-17">
          <mxGeometry relative="1" as="geometry">
            <mxPoint x="80" y="100" as="targetPoint" />
          </mxGeometry>
        </mxCell>
        <mxCell id="LYJN2EBSwVhYtJWLNP7u-21" value="" style="edgeStyle=orthogonalEdgeStyle;html=1;verticalAlign=bottom;endArrow=open;endSize=8;strokeColor=#ff0000;rounded=0;entryX=0.5;entryY=0;entryDx=0;entryDy=0;exitX=-0.004;exitY=0.421;exitDx=0;exitDy=0;exitPerimeter=0;" edge="1" parent="LYJN2EBSwVhYtJWLNP7u-30" source="LYJN2EBSwVhYtJWLNP7u-17" target="LYJN2EBSwVhYtJWLNP7u-27">
          <mxGeometry relative="1" as="geometry">
            <mxPoint x="146.0000000000001" y="138.0000000000001" as="targetPoint" />
            <mxPoint x="546.48" y="80" as="sourcePoint" />
            <Array as="points">
              <mxPoint x="555" y="90" />
              <mxPoint x="215" y="90" />
            </Array>
          </mxGeometry>
        </mxCell>
        <mxCell id="LYJN2EBSwVhYtJWLNP7u-59" value="" style="edgeStyle=orthogonalEdgeStyle;html=1;verticalAlign=bottom;endArrow=open;endSize=8;strokeColor=#ff0000;rounded=0;entryX=0;entryY=0.5;entryDx=0;entryDy=0;" edge="1" parent="LYJN2EBSwVhYtJWLNP7u-30" source="LYJN2EBSwVhYtJWLNP7u-58" target="LYJN2EBSwVhYtJWLNP7u-27">
          <mxGeometry relative="1" as="geometry">
            <mxPoint x="796" y="220" as="targetPoint" />
            <Array as="points">
              <mxPoint x="96" y="610" />
              <mxPoint x="96" y="135" />
            </Array>
          </mxGeometry>
        </mxCell>
        <mxCell id="LYJN2EBSwVhYtJWLNP7u-31" value="Usuario" style="swimlane;startSize=20;" vertex="1" parent="LYJN2EBSwVhYtJWLNP7u-30">
          <mxGeometry x="20" width="290" height="720" as="geometry" />
        </mxCell>
        <mxCell id="LYJN2EBSwVhYtJWLNP7u-19" value="" style="ellipse;html=1;shape=startState;fillColor=#000000;strokeColor=#ff0000;fillStyle=auto;" vertex="1" parent="LYJN2EBSwVhYtJWLNP7u-31">
          <mxGeometry x="26" y="35" width="30" height="30" as="geometry" />
        </mxCell>
        <mxCell id="LYJN2EBSwVhYtJWLNP7u-27" value="Diligenciar el formulario" style="rounded=1;whiteSpace=wrap;html=1;arcSize=40;fontColor=#000000;fillColor=#ffffc0;strokeColor=#ff0000;" vertex="1" parent="LYJN2EBSwVhYtJWLNP7u-31">
          <mxGeometry x="135" y="110" width="120" height="50" as="geometry" />
        </mxCell>
        <mxCell id="DY15bEepxD2QxG58CWDD-1" value="Pulsar botón &quot;Inicio de sesión&quot;" style="rounded=1;whiteSpace=wrap;html=1;arcSize=40;fontColor=#000000;fillColor=#ffffc0;strokeColor=#ff0000;" vertex="1" parent="LYJN2EBSwVhYtJWLNP7u-31">
          <mxGeometry x="126" y="30" width="120" height="40" as="geometry" />
        </mxCell>
        <mxCell id="DY15bEepxD2QxG58CWDD-2" value="" style="edgeStyle=orthogonalEdgeStyle;html=1;verticalAlign=bottom;endArrow=open;endSize=8;strokeColor=#ff0000;rounded=0;exitX=1;exitY=0.5;exitDx=0;exitDy=0;" edge="1" parent="LYJN2EBSwVhYtJWLNP7u-31" source="LYJN2EBSwVhYtJWLNP7u-19">
          <mxGeometry relative="1" as="geometry">
            <mxPoint x="128" y="50" as="targetPoint" />
            <mxPoint x="80" y="55" as="sourcePoint" />
            <Array as="points">
              <mxPoint x="128" y="50" />
            </Array>
          </mxGeometry>
        </mxCell>
        <mxCell id="LYJN2EBSwVhYtJWLNP7u-32" value="Sistema" style="swimlane;startSize=20;" vertex="1" parent="LYJN2EBSwVhYtJWLNP7u-30">
          <mxGeometry x="310" width="470" height="720" as="geometry" />
        </mxCell>
        <mxCell id="LYJN2EBSwVhYtJWLNP7u-17" value="Mostrar formulario de inicio de sesión" style="rounded=1;whiteSpace=wrap;html=1;arcSize=40;fontColor=#000000;fillColor=#ffffc0;strokeColor=#ff0000;" vertex="1" parent="LYJN2EBSwVhYtJWLNP7u-32">
          <mxGeometry x="145" y="70" width="120" height="50" as="geometry" />
        </mxCell>
        <mxCell id="LYJN2EBSwVhYtJWLNP7u-115" style="edgeStyle=orthogonalEdgeStyle;rounded=0;orthogonalLoop=1;jettySize=auto;html=1;exitX=0;exitY=0.5;exitDx=0;exitDy=0;entryX=1;entryY=0.5;entryDx=0;entryDy=0;strokeColor=#FF1E0E;" edge="1" parent="LYJN2EBSwVhYtJWLNP7u-32" source="LYJN2EBSwVhYtJWLNP7u-37" target="LYJN2EBSwVhYtJWLNP7u-58">
          <mxGeometry relative="1" as="geometry" />
        </mxCell>
        <mxCell id="LYJN2EBSwVhYtJWLNP7u-116" value="no" style="edgeLabel;html=1;align=center;verticalAlign=middle;resizable=0;points=[];" vertex="1" connectable="0" parent="LYJN2EBSwVhYtJWLNP7u-115">
          <mxGeometry x="-0.8585" y="2" relative="1" as="geometry">
            <mxPoint x="-16" y="-2" as="offset" />
          </mxGeometry>
        </mxCell>
        <mxCell id="LYJN2EBSwVhYtJWLNP7u-37" value="¿Datos válidos?" style="rhombus;whiteSpace=wrap;html=1;fontColor=#000000;fillColor=#ffffc0;strokeColor=#ff0000;" vertex="1" parent="LYJN2EBSwVhYtJWLNP7u-32">
          <mxGeometry x="276" y="310" width="116" height="60" as="geometry" />
        </mxCell>
        <mxCell id="LYJN2EBSwVhYtJWLNP7u-118" style="edgeStyle=orthogonalEdgeStyle;rounded=0;orthogonalLoop=1;jettySize=auto;html=1;exitX=0.5;exitY=1;exitDx=0;exitDy=0;entryX=0.5;entryY=0;entryDx=0;entryDy=0;strokeColor=light-dark(#FF1900,#FF1900);" edge="1" parent="LYJN2EBSwVhYtJWLNP7u-32" source="LYJN2EBSwVhYtJWLNP7u-45" target="LYJN2EBSwVhYtJWLNP7u-37">
          <mxGeometry relative="1" as="geometry" />
        </mxCell>
        <mxCell id="LYJN2EBSwVhYtJWLNP7u-45" value="Validar datos" style="rounded=1;whiteSpace=wrap;html=1;arcSize=40;fontColor=#000000;fillColor=#ffffc0;strokeColor=#ff0000;" vertex="1" parent="LYJN2EBSwVhYtJWLNP7u-32">
          <mxGeometry x="274" y="210" width="120" height="40" as="geometry" />
        </mxCell>
        <mxCell id="LYJN2EBSwVhYtJWLNP7u-58" value="Mostrar mensaje de error" style="rounded=1;whiteSpace=wrap;html=1;arcSize=40;fontColor=#000000;fillColor=#ffffc0;strokeColor=#ff0000;" vertex="1" parent="LYJN2EBSwVhYtJWLNP7u-32">
          <mxGeometry x="26" y="320" width="120" height="40" as="geometry" />
        </mxCell>
        <mxCell id="LYJN2EBSwVhYtJWLNP7u-51" value="Mostrar mensaje de éxito" style="rounded=1;whiteSpace=wrap;html=1;arcSize=40;fontColor=#000000;fillColor=#ffffc0;strokeColor=#ff0000;" vertex="1" parent="LYJN2EBSwVhYtJWLNP7u-32">
          <mxGeometry x="272" y="440" width="120" height="40" as="geometry" />
        </mxCell>
        <mxCell id="LYJN2EBSwVhYtJWLNP7u-40" value="" style="ellipse;html=1;shape=endState;fillColor=#000000;strokeColor=#ff0000;" vertex="1" parent="LYJN2EBSwVhYtJWLNP7u-32">
          <mxGeometry x="317" y="670" width="30" height="30" as="geometry" />
        </mxCell>
        <mxCell id="LYJN2EBSwVhYtJWLNP7u-108" value="" style="edgeStyle=orthogonalEdgeStyle;rounded=0;orthogonalLoop=1;jettySize=auto;html=1;exitX=0.5;exitY=1;exitDx=0;exitDy=0;entryX=0.502;entryY=0.106;entryDx=0;entryDy=0;entryPerimeter=0;strokeColor=#FF1E0E;" edge="1" parent="LYJN2EBSwVhYtJWLNP7u-32" source="LYJN2EBSwVhYtJWLNP7u-51" target="LYJN2EBSwVhYtJWLNP7u-106">
          <mxGeometry relative="1" as="geometry">
            <mxPoint x="670" y="520" as="sourcePoint" />
            <mxPoint x="666" y="683" as="targetPoint" />
            <Array as="points">
              <mxPoint x="332" y="480" />
              <mxPoint x="332" y="500" />
            </Array>
          </mxGeometry>
        </mxCell>
        <mxCell id="LYJN2EBSwVhYtJWLNP7u-106" value="Inicia sesión" style="rounded=1;whiteSpace=wrap;html=1;arcSize=40;fontColor=#000000;fillColor=#ffffc0;strokeColor=#ff0000;" vertex="1" parent="LYJN2EBSwVhYtJWLNP7u-32">
          <mxGeometry x="272" y="520" width="120" height="40" as="geometry" />
        </mxCell>
        <mxCell id="LYJN2EBSwVhYtJWLNP7u-109" style="edgeStyle=orthogonalEdgeStyle;rounded=0;orthogonalLoop=1;jettySize=auto;html=1;entryX=0.53;entryY=0.115;entryDx=0;entryDy=0;entryPerimeter=0;strokeColor=#FF1E0E;" edge="1" parent="LYJN2EBSwVhYtJWLNP7u-32" source="LYJN2EBSwVhYtJWLNP7u-110" target="LYJN2EBSwVhYtJWLNP7u-40">
          <mxGeometry relative="1" as="geometry" />
        </mxCell>
        <mxCell id="LYJN2EBSwVhYtJWLNP7u-111" value="" style="edgeStyle=orthogonalEdgeStyle;rounded=0;orthogonalLoop=1;jettySize=auto;html=1;entryX=0.5;entryY=0;entryDx=0;entryDy=0;strokeColor=#FF1E0E;" edge="1" parent="LYJN2EBSwVhYtJWLNP7u-32" source="LYJN2EBSwVhYtJWLNP7u-106" target="LYJN2EBSwVhYtJWLNP7u-110">
          <mxGeometry relative="1" as="geometry">
            <mxPoint x="666" y="570" as="sourcePoint" />
            <mxPoint x="667" y="683" as="targetPoint" />
            <Array as="points" />
          </mxGeometry>
        </mxCell>
        <mxCell id="LYJN2EBSwVhYtJWLNP7u-110" value="Redirige a página principal" style="rounded=1;whiteSpace=wrap;html=1;arcSize=40;fontColor=#000000;fillColor=#ffffc0;strokeColor=#ff0000;" vertex="1" parent="LYJN2EBSwVhYtJWLNP7u-32">
          <mxGeometry x="272" y="590" width="120" height="40" as="geometry" />
        </mxCell>
        <mxCell id="LYJN2EBSwVhYtJWLNP7u-112" style="edgeStyle=orthogonalEdgeStyle;rounded=0;orthogonalLoop=1;jettySize=auto;html=1;entryX=0.514;entryY=-0.043;entryDx=0;entryDy=0;entryPerimeter=0;strokeColor=#FF1E0E;" edge="1" parent="LYJN2EBSwVhYtJWLNP7u-32" source="LYJN2EBSwVhYtJWLNP7u-37" target="LYJN2EBSwVhYtJWLNP7u-51">
          <mxGeometry relative="1" as="geometry" />
        </mxCell>
        <mxCell id="LYJN2EBSwVhYtJWLNP7u-113" value="si" style="edgeLabel;html=1;align=center;verticalAlign=middle;resizable=0;points=[];" vertex="1" connectable="0" parent="LYJN2EBSwVhYtJWLNP7u-112">
          <mxGeometry x="-0.683" relative="1" as="geometry">
            <mxPoint as="offset" />
          </mxGeometry>
        </mxCell>
        <mxCell id="LYJN2EBSwVhYtJWLNP7u-114" style="edgeStyle=orthogonalEdgeStyle;rounded=0;orthogonalLoop=1;jettySize=auto;html=1;exitX=0.5;exitY=1;exitDx=0;exitDy=0;" edge="1" parent="LYJN2EBSwVhYtJWLNP7u-32" source="LYJN2EBSwVhYtJWLNP7u-58" target="LYJN2EBSwVhYtJWLNP7u-58">
          <mxGeometry relative="1" as="geometry" />
        </mxCell>
        <mxCell id="LYJN2EBSwVhYtJWLNP7u-117" style="edgeStyle=orthogonalEdgeStyle;rounded=0;orthogonalLoop=1;jettySize=auto;html=1;exitX=1;exitY=0.5;exitDx=0;exitDy=0;entryX=0.5;entryY=0;entryDx=0;entryDy=0;strokeColor=#FF0000;" edge="1" parent="LYJN2EBSwVhYtJWLNP7u-30" source="LYJN2EBSwVhYtJWLNP7u-27" target="LYJN2EBSwVhYtJWLNP7u-45">
          <mxGeometry relative="1" as="geometry" />
        </mxCell>
      </root>
    </mxGraphModel>
  </diagram>
</mxfile>
